<?xml version="1.0" encoding="utf-8"?>
<!-- Generator: Adobe Illustrator 24.1.2, SVG Export Plug-In . SVG Version: 6.00 Build 0)  -->
<svg version="1.1" id="Слой_1" xmlns="http://www.w3.org/2000/svg" xmlns:xlink="http://www.w3.org/1999/xlink" x="0px" y="0px"
	 viewBox="0 0 60 60" style="enable-background:new 0 0 60 60;" xml:space="preserve">
<style type="text/css">
	.st0{display:none;}
	.st1{display:inline;stroke:#FFFFFF;stroke-miterlimit:10;}
	.st2{display:inline;}
	.st3{clip-path:url(#SVGID_2_);}
	.st4{fill:#FFFFFF;}
</style>
<g id="Слой_2_1_" class="st0">
	<rect x="-316.5" y="-177.5" class="st1" width="666" height="353"/>
</g>
<g id="Слой_1_1_" class="st0">
	<g class="st2">
		<g>
			<defs>
				<rect id="SVGID_1_" x="7.5" y="12.6" width="45" height="34.9"/>
			</defs>
			<clipPath id="SVGID_2_">
				<use xlink:href="#SVGID_1_"  style="overflow:visible;"/>
			</clipPath>
			<g class="st3">
				<path class="st4" d="M45.6,15.7c-2.9-1.3-5.9-2.3-9.2-2.8c-0.1,0-0.1,0-0.1,0.1c-0.4,0.7-0.8,1.6-1.1,2.3
					c-3.5-0.5-6.9-0.5-10.3,0c-0.3-0.7-0.8-1.6-1.2-2.3c0-0.1-0.1-0.1-0.1-0.1c-3.2,0.6-6.3,1.5-9.2,2.8c0,0,0,0-0.1,0.1
					C8.5,24.5,6.9,33,7.7,41.4c0,0,0,0.1,0.1,0.1c3.8,2.8,7.6,4.5,11.2,5.7c0.1,0,0.1,0,0.2-0.1c0.9-1.2,1.6-2.4,2.3-3.7
					c0-0.1,0-0.2-0.1-0.2c-1.2-0.5-2.4-1-3.5-1.7c-0.1-0.1-0.1-0.2,0-0.2c0.2-0.2,0.5-0.4,0.7-0.5h0.1C26,44,34,44,41.3,40.7h0.1
					c0.2,0.2,0.5,0.4,0.7,0.5c0.1,0.1,0.1,0.2,0,0.2c-1.1,0.7-2.3,1.2-3.5,1.7c-0.1,0-0.1,0.1-0.1,0.2c0.7,1.3,1.4,2.6,2.3,3.7
					c0,0.1,0.1,0.1,0.2,0.1c3.7-1.1,7.4-2.9,11.3-5.7l0.1-0.1C53.2,31.6,50.7,23.2,45.6,15.7L45.6,15.7z M22.5,36.2
					c-2.2,0-4-2-4-4.5s1.8-4.5,4-4.5c2.3,0,4.1,2.1,4,4.5C26.6,34.2,24.8,36.2,22.5,36.2z M37.5,36.2c-2.2,0-4-2-4-4.5
					s1.8-4.5,4-4.5c2.3,0,4.1,2.1,4,4.5C41.5,34.2,39.8,36.2,37.5,36.2z"/>
			</g>
		</g>
	</g>
</g>
<path class="st4" d="M44,30l1.8,1.8c0.3,0.3,0.5,0.5,0.8,0.8c0.2,0.2,0.2,0.3,0.2,0.6c0,0.7,0,1.5,0,2.3c0,2.7,0,5.4,0,8.2
	c0,0.2-0.1,0.4-0.2,0.6c-0.8,0.7-1.6,1.5-2.3,2.3c-0.2,0.2-0.3,0.2-0.5,0.2c-10.1,0-20.2,0-30.3,0c-0.1,0-0.2,0-0.3,0V13.4
	c0.2,0,0.3,0,0.5,0h13.3c5.6,0,11.2,0,16.7,0c0.3,0,0.5,0.1,0.7,0.3c0.8,0.8,1.5,1.5,2.3,2.3c0.1,0.1,0.1,0.1,0.2,0.2
	c0.1,0.1,0.1,0.2,0.1,0.3c0,3.5,0,7,0,10.6c0,0.2-0.1,0.3-0.2,0.5c-0.8,0.7-1.5,1.5-2.3,2.3C44.2,29.8,44.1,29.9,44,30z M39.7,41
	c0-0.1,0-0.1,0.1-0.1c0-2.2,0-4.4,0-6.6c0-0.2-0.1-0.2-0.2-0.3c-0.3-0.3-0.7-0.6-1-1c-0.2-0.2-0.3-0.2-0.5-0.2c-1.4,0-2.7,0-4.1,0
	c-0.1,0-0.2,0-0.4,0c0.1,0.2,0.1,0.3,0.1,0.5c0.5,1.5,1,3,1.5,4.5c0,0.1,0.1,0.2,0.1,0.3l-5.8-3.6L23.7,38L23.7,38
	c0.7-2.2,1.4-4.3,2.2-6.4l-5.7-4.3V41L39.7,41z M20.1,27.2c0.2,0,0.3,0,0.4,0c2.2,0,4.3,0,6.5,0c0.3,0,0.3,0,0.5-0.3
	c0.6-1.9,1.3-3.9,1.9-5.8c0.1-0.1,0.1-0.2,0.2-0.4c0.7,2.2,1.5,4.4,2.2,6.5c0.1,0,0.1,0,0.2,0c2.1,0,4.2,0,6.3,0
	c0.2,0,0.3-0.1,0.4-0.2c0.3-0.3,0.7-0.7,1-1c0.1-0.1,0.1-0.1,0.2-0.2s0.1-0.2,0.1-0.3c0-2.1,0-4.2,0-6.3c0-0.1,0-0.2,0-0.3
	c-0.1,0-0.1-0.1-0.1-0.1c-6.4,0-12.8,0-19.2,0c-0.1,0-0.1,0-0.2,0c0,0,0,0-0.1,0c0,0,0,0-0.1,0.1L20.1,27.2z"/>
</svg>
