<?xml version="1.0" encoding="utf-8"?>
<!-- Generator: Adobe Illustrator 24.1.2, SVG Export Plug-In . SVG Version: 6.00 Build 0)  -->
<svg version="1.1" xmlns="http://www.w3.org/2000/svg" xmlns:xlink="http://www.w3.org/1999/xlink" x="0px" y="0px"
	 viewBox="0 0 60 60" style="enable-background:new 0 0 60 60;" xml:space="preserve">
<style type="text/css">
	.st0{display:none;}
	.st1{display:inline;stroke:#FFFFFF;stroke-miterlimit:10;}
	.st2{clip-path:url(#SVGID_2_);}
	.st3{fill:#FFFFFF;}
</style>
<g id="Слой_2" class="st0">
	<rect x="-316.5" y="-177.5" class="st1" width="666" height="353"/>
</g>
<g id="Слой_1">
	<g>
		<defs>
			<rect id="SVGID_1_" x="7.5" y="12.6" width="45" height="34.9"/>
		</defs>
		<clipPath id="SVGID_2_">
			<use xlink:href="#SVGID_1_"  style="overflow:visible;"/>
		</clipPath>
		<g class="st2">
			<path class="st3" d="M45.6,15.7c-2.9-1.3-5.9-2.3-9.2-2.8c-0.1,0-0.1,0-0.1,0.1c-0.4,0.7-0.8,1.6-1.1,2.3
				c-3.5-0.5-6.9-0.5-10.3,0c-0.3-0.7-0.8-1.6-1.2-2.3c0-0.1-0.1-0.1-0.1-0.1c-3.2,0.6-6.3,1.5-9.2,2.8c0,0,0,0-0.1,0.1
				c-5.8,8.7-7.4,17.2-6.6,25.6c0,0,0,0.1,0.1,0.1c3.8,2.8,7.6,4.5,11.2,5.7c0.1,0,0.1,0,0.2-0.1c0.9-1.2,1.6-2.4,2.3-3.7
				c0-0.1,0-0.2-0.1-0.2c-1.2-0.5-2.4-1-3.5-1.7c-0.1-0.1-0.1-0.2,0-0.2c0.2-0.2,0.5-0.4,0.7-0.5c0,0,0.1,0,0.1,0
				C26,44,34,44,41.3,40.7c0,0,0.1,0,0.1,0c0.2,0.2,0.5,0.4,0.7,0.5c0.1,0.1,0.1,0.2,0,0.2c-1.1,0.7-2.3,1.2-3.5,1.7
				c-0.1,0-0.1,0.1-0.1,0.2c0.7,1.3,1.4,2.6,2.3,3.7c0,0.1,0.1,0.1,0.2,0.1c3.7-1.1,7.4-2.9,11.3-5.7c0,0,0.1-0.1,0.1-0.1
				C53.2,31.6,50.7,23.2,45.6,15.7C45.6,15.7,45.6,15.7,45.6,15.7z M22.5,36.2c-2.2,0-4-2-4-4.5s1.8-4.5,4-4.5c2.3,0,4.1,2.1,4,4.5
				C26.6,34.2,24.8,36.2,22.5,36.2z M37.5,36.2c-2.2,0-4-2-4-4.5s1.8-4.5,4-4.5c2.3,0,4.1,2.1,4,4.5C41.5,34.2,39.8,36.2,37.5,36.2z
				"/>
		</g>
	</g>
</g>
</svg>
