<svg xmlns="http://www.w3.org/2000/svg" xmlns:xlink="http://www.w3.org/1999/xlink" viewBox="0,0,256,256" width="45px" height="45px"><g fill="#000000" fill-rule="nonzero" stroke="none" stroke-width="1" stroke-linecap="butt" stroke-linejoin="miter" stroke-miterlimit="10" stroke-dasharray="" stroke-dashoffset="0" font-family="none" font-weight="none" font-size="none" text-anchor="none" style="mix-blend-mode: normal"><g transform="scale(5.12,5.12)"><path d="M37.35938,5.57813c-0.2355,0.015 -0.46558,0.11156 -0.64258,0.28906c-0.355,0.355 -0.39098,0.92036 -0.08398,1.31836c2.857,3.703 4.36719,8.13445 4.36719,12.81445c0,11.579 -9.421,21 -21,21c-4.68,0 -9.1095,-1.51019 -12.8125,-4.36719c-0.398,-0.307 -0.96136,-0.27202 -1.31836,0.08398c-0.355,0.355 -0.39294,0.91941 -0.08594,1.31641c4.396,5.698 11.0358,8.9668 18.2168,8.9668c12.683,0 23,-10.317 23,-23c0,-7.18 -3.26784,-13.8208 -8.96484,-18.2168c-0.199,-0.1535 -0.44028,-0.22008 -0.67578,-0.20508zM10.21094,9c-0.262,0 -0.51322,0.10216 -0.69922,0.28516c-2.909,2.848 -4.51172,6.65384 -4.51172,10.71484c0,5.288 2.84578,10.24264 7.42578,12.93164c0.157,0.093 0.33186,0.13867 0.50586,0.13867c0.259,0 0.51503,-0.10097 0.70703,-0.29297c0.322,-0.322 0.3853,-0.82184 0.1543,-1.21484c-1.173,-1.997 -1.79297,-4.2655 -1.79297,-6.5625c0,-3.415 1.31884,-6.64384 3.71484,-9.08984c0.183,-0.187 0.28516,-0.43722 0.28516,-0.69922v-5.21094c0,-0.552 -0.447,-1 -1,-1zM26,9c-0.553,0 -1,0.448 -1,1v6.5c0,1.93 -1.57,3.5 -3.5,3.5c-0.059,0 -0.11488,-0.01153 -0.17187,-0.01953l-0.17969,-0.02148c-0.298,-0.033 -0.59659,0.07411 -0.80859,0.28711c-0.213,0.212 -0.31906,0.50859 -0.28906,0.80859c0.287,2.819 2.62922,4.94531 5.44922,4.94531c3.032,0 5.5,-2.467 5.5,-5.5v-4.5h1c0.332,0 0.64213,-0.16545 0.82813,-0.43945c0.186,-0.275 0.22456,-0.62364 0.10156,-0.93164l-2,-5c-0.153,-0.38 -0.52069,-0.62891 -0.92969,-0.62891z"></path></g></g></svg>