<?xml version="1.0" encoding="utf-8"?>
<!-- Generator: Adobe Illustrator 24.1.2, SVG Export Plug-In . SVG Version: 6.00 Build 0)  -->
<svg version="1.1" id="Слой_2" xmlns="http://www.w3.org/2000/svg" xmlns:xlink="http://www.w3.org/1999/xlink" x="0px" y="0px"
	 viewBox="0 0 60 60" style="enable-background:new 0 0 60 60;" xml:space="preserve">
<style type="text/css">
	.st0{fill:#FFFFFF;}
</style>
<g>
	<path class="st0" d="M46.2,38.6c-0.7-2.9-2.9-4.8-5.9-4.8c-3,0-4.6,1.9-4.8,4c-0.2,1.5,0.4,2.8,1.3,3.3c1.6,0.9,2.7-0.7,2.1-1.2
		c-0.4-0.4-0.6-0.7-0.5-1.3c0.1-0.6,0.5-1.1,1.6-1.1s1.9,0.7,2.1,2.3c0.2,1.8-1,3.7-3,4.2c-2.6,0.6-5.3-0.9-6.2-3.1
		c-0.9-2.3-0.7-5.8,1.6-8c1.8-1.7,4.1-2.3,6.1-2.3l6.6,0.3c0.5,0,0.9-0.3,1-0.8l2.8-11.5c0-0.1,0-0.2,0-0.2c0-0.6-0.4-1-1-1h-12
		c0,0-0.1,0-0.1,0c-0.3-0.1-0.4-0.3-0.4-0.6l1.3-5.8c0-0.1,0-0.2,0-0.2c0-0.6-0.5-1-1-1H25.2c-0.7,0-1.3,0.5-1.5,1.1l-1.4,5.8
		c-0.1,0.4-0.5,0.8-1,0.8h-8c-0.7,0-1.3,0.5-1.5,1.2L9.2,29.8c0,0.1,0,0.1,0,0.2c0,0.6,0.5,1,1,1h8.2c0.1,0,0.1,0,0.1,0
		c0.4,0.1,0.7,0.5,0.6,0.9c-0.2,1.2-0.4,2.4-0.5,3.6c-0.2,3.6,0.7,7.5,3.5,10.5c4.8,5.2,13.6,5.5,18.8,2.6
		C45.2,46.4,47.1,42.1,46.2,38.6z"/>
</g>
</svg>
